STARTFONT 2.1
COMMENT converted Oberon font (using FontToBDF by R.Crelier 10.1.91)
FONT Syntax10w.Scn.Fnt
SIZE 10 75 75
FONTBOUNDINGBOX  13 12 0 -4
STARTPROPERTIES 3
FONT_ASCENT 8
FONT_DESCENT 4
DEFAULT_CHAR 0
ENDPROPERTIES
CHARS 121
STARTCHAR c0
ENCODING -1 0
SWIDTH 0 0
DWIDTH 0 0
BBX 0 0 0 0
BITMAP
ENDCHAR
STARTCHAR c9
ENCODING -1 9
SWIDTH 387 0
DWIDTH 12 0
BBX 0 0 0 0
BITMAP
ENDCHAR
STARTCHAR c32
ENCODING -1 32
SWIDTH 96 0
DWIDTH 3 0
BBX 0 0 0 0
BITMAP
ENDCHAR
STARTCHAR c33
ENCODING -1 33
SWIDTH 129 0
DWIDTH 4 0
BBX 1 7 2 0
BITMAP
80
80
80
80
00
00
80
ENDCHAR
STARTCHAR c34
ENCODING -1 34
SWIDTH 129 0
DWIDTH 4 0
BBX 4 3 0 4
BITMAP
50
50
A0
ENDCHAR
STARTCHAR c35
ENCODING -1 35
SWIDTH 225 0
DWIDTH 7 0
BBX 5 7 1 0
BITMAP
50
50
F8
50
F8
50
50
ENDCHAR
STARTCHAR c36
ENCODING -1 36
SWIDTH 225 0
DWIDTH 7 0
BBX 5 9 1 -1
BITMAP
20
78
A0
A0
70
28
28
F0
20
ENDCHAR
STARTCHAR c37
ENCODING -1 37
SWIDTH 290 0
DWIDTH 9 0
BBX 7 7 1 0
BITMAP
64
A8
C8
10
26
2A
4C
ENDCHAR
STARTCHAR c38
ENCODING -1 38
SWIDTH 193 0
DWIDTH 6 0
BBX 6 7 0 0
BITMAP
30
48
50
24
54
88
74
ENDCHAR
STARTCHAR c39
ENCODING -1 39
SWIDTH 96 0
DWIDTH 3 0
BBX 2 3 0 4
BITMAP
40
40
80
ENDCHAR
STARTCHAR c40
ENCODING -1 40
SWIDTH 193 0
DWIDTH 6 0
BBX 3 8 1 -1
BITMAP
20
40
80
80
80
80
40
20
ENDCHAR
STARTCHAR c41
ENCODING -1 41
SWIDTH 193 0
DWIDTH 6 0
BBX 3 8 2 -1
BITMAP
80
40
20
20
20
20
40
80
ENDCHAR
STARTCHAR c42
ENCODING -1 42
SWIDTH 193 0
DWIDTH 6 0
BBX 5 5 0 0
BITMAP
50
20
F8
20
50
ENDCHAR
STARTCHAR c43
ENCODING -1 43
SWIDTH 193 0
DWIDTH 6 0
BBX 5 5 0 0
BITMAP
20
20
F8
20
20
ENDCHAR
STARTCHAR c44
ENCODING -1 44
SWIDTH 96 0
DWIDTH 3 0
BBX 2 3 0 -2
BITMAP
40
40
80
ENDCHAR
STARTCHAR c45
ENCODING -1 45
SWIDTH 193 0
DWIDTH 6 0
BBX 4 1 1 2
BITMAP
F0
ENDCHAR
STARTCHAR c46
ENCODING -1 46
SWIDTH 96 0
DWIDTH 3 0
BBX 1 2 1 0
BITMAP
80
80
ENDCHAR
STARTCHAR c47
ENCODING -1 47
SWIDTH 193 0
DWIDTH 6 0
BBX 5 7 0 0
BITMAP
08
10
10
20
40
40
80
ENDCHAR
STARTCHAR c48
ENCODING -1 48
SWIDTH 193 0
DWIDTH 6 0
BBX 4 7 1 0
BITMAP
60
90
90
90
90
90
60
ENDCHAR
STARTCHAR c49
ENCODING -1 49
SWIDTH 193 0
DWIDTH 6 0
BBX 2 7 2 0
BITMAP
40
C0
40
40
40
40
40
ENDCHAR
STARTCHAR c50
ENCODING -1 50
SWIDTH 193 0
DWIDTH 6 0
BBX 5 7 0 0
BITMAP
70
08
08
10
20
40
F8
ENDCHAR
STARTCHAR c51
ENCODING -1 51
SWIDTH 193 0
DWIDTH 6 0
BBX 4 7 1 0
BITMAP
F0
10
20
F0
10
10
E0
ENDCHAR
STARTCHAR c52
ENCODING -1 52
SWIDTH 193 0
DWIDTH 6 0
BBX 6 7 0 0
BITMAP
10
30
50
90
FC
10
10
ENDCHAR
STARTCHAR c53
ENCODING -1 53
SWIDTH 193 0
DWIDTH 6 0
BBX 4 7 1 0
BITMAP
70
40
80
E0
10
10
E0
ENDCHAR
STARTCHAR c54
ENCODING -1 54
SWIDTH 193 0
DWIDTH 6 0
BBX 5 7 0 0
BITMAP
38
40
80
B0
C8
88
70
ENDCHAR
STARTCHAR c55
ENCODING -1 55
SWIDTH 193 0
DWIDTH 6 0
BBX 5 7 0 0
BITMAP
F8
10
10
20
20
40
40
ENDCHAR
STARTCHAR c56
ENCODING -1 56
SWIDTH 193 0
DWIDTH 6 0
BBX 4 7 1 0
BITMAP
60
90
90
60
90
90
60
ENDCHAR
STARTCHAR c57
ENCODING -1 57
SWIDTH 193 0
DWIDTH 6 0
BBX 5 7 0 0
BITMAP
70
88
98
68
08
10
E0
ENDCHAR
STARTCHAR c58
ENCODING -1 58
SWIDTH 96 0
DWIDTH 3 0
BBX 1 5 1 0
BITMAP
80
00
00
00
80
ENDCHAR
STARTCHAR c59
ENCODING -1 59
SWIDTH 96 0
DWIDTH 3 0
BBX 2 7 0 -2
BITMAP
40
00
00
00
40
40
80
ENDCHAR
STARTCHAR c60
ENCODING -1 60
SWIDTH 193 0
DWIDTH 6 0
BBX 6 5 0 0
BITMAP
0C
30
C0
30
0C
ENDCHAR
STARTCHAR c61
ENCODING -1 61
SWIDTH 193 0
DWIDTH 6 0
BBX 4 3 1 1
BITMAP
F0
00
F0
ENDCHAR
STARTCHAR c62
ENCODING -1 62
SWIDTH 193 0
DWIDTH 6 0
BBX 6 5 0 0
BITMAP
C0
30
0C
30
C0
ENDCHAR
STARTCHAR c63
ENCODING -1 63
SWIDTH 193 0
DWIDTH 6 0
BBX 4 7 1 0
BITMAP
E0
10
10
20
40
00
40
ENDCHAR
STARTCHAR c64
ENCODING -1 64
SWIDTH 354 0
DWIDTH 11 0
BBX 9 8 1 -1
BITMAP
1E00
6100
4C80
9480
9480
9D00
4600
3000
ENDCHAR
STARTCHAR c65
ENCODING -1 65
SWIDTH 225 0
DWIDTH 7 0
BBX 7 8 0 0
BITMAP
10
10
28
28
7C
44
82
82
ENDCHAR
STARTCHAR c66
ENCODING -1 66
SWIDTH 225 0
DWIDTH 7 0
BBX 5 8 1 0
BITMAP
F0
88
88
F0
88
88
88
F0
ENDCHAR
STARTCHAR c67
ENCODING -1 67
SWIDTH 193 0
DWIDTH 6 0
BBX 5 8 1 0
BITMAP
38
40
80
80
80
80
40
38
ENDCHAR
STARTCHAR c68
ENCODING -1 68
SWIDTH 258 0
DWIDTH 8 0
BBX 6 8 1 0
BITMAP
F0
88
84
84
84
84
88
F0
ENDCHAR
STARTCHAR c69
ENCODING -1 69
SWIDTH 193 0
DWIDTH 6 0
BBX 4 8 1 0
BITMAP
F0
80
80
F0
80
80
80
F0
ENDCHAR
STARTCHAR c70
ENCODING -1 70
SWIDTH 161 0
DWIDTH 5 0
BBX 4 8 1 0
BITMAP
F0
80
80
F0
80
80
80
80
ENDCHAR
STARTCHAR c71
ENCODING -1 71
SWIDTH 258 0
DWIDTH 8 0
BBX 6 8 1 0
BITMAP
38
40
80
80
84
84
44
3C
ENDCHAR
STARTCHAR c72
ENCODING -1 72
SWIDTH 258 0
DWIDTH 8 0
BBX 6 8 1 0
BITMAP
84
84
84
FC
84
84
84
84
ENDCHAR
STARTCHAR c73
ENCODING -1 73
SWIDTH 96 0
DWIDTH 3 0
BBX 1 8 1 0
BITMAP
80
80
80
80
80
80
80
80
ENDCHAR
STARTCHAR c74
ENCODING -1 74
SWIDTH 96 0
DWIDTH 3 0
BBX 2 8 0 0
BITMAP
40
40
40
40
40
40
40
80
ENDCHAR
STARTCHAR c75
ENCODING -1 75
SWIDTH 193 0
DWIDTH 6 0
BBX 5 8 1 0
BITMAP
88
90
A0
C0
C0
A0
90
88
ENDCHAR
STARTCHAR c76
ENCODING -1 76
SWIDTH 161 0
DWIDTH 5 0
BBX 4 8 1 0
BITMAP
80
80
80
80
80
80
80
F0
ENDCHAR
STARTCHAR c77
ENCODING -1 77
SWIDTH 354 0
DWIDTH 11 0
BBX 11 8 0 0
BITMAP
2080
2080
5140
5140
4A40
8A20
8420
8420
ENDCHAR
STARTCHAR c78
ENCODING -1 78
SWIDTH 290 0
DWIDTH 9 0
BBX 7 8 1 0
BITMAP
82
C2
A2
92
92
8A
86
82
ENDCHAR
STARTCHAR c79
ENCODING -1 79
SWIDTH 290 0
DWIDTH 9 0
BBX 7 8 1 0
BITMAP
38
44
82
82
82
82
44
38
ENDCHAR
STARTCHAR c80
ENCODING -1 80
SWIDTH 193 0
DWIDTH 6 0
BBX 5 8 1 0
BITMAP
F0
88
88
88
F0
80
80
80
ENDCHAR
STARTCHAR c81
ENCODING -1 81
SWIDTH 290 0
DWIDTH 9 0
BBX 7 10 1 -2
BITMAP
38
44
82
82
82
82
44
38
04
02
ENDCHAR
STARTCHAR c82
ENCODING -1 82
SWIDTH 225 0
DWIDTH 7 0
BBX 5 8 1 0
BITMAP
F0
88
88
88
F0
A0
90
88
ENDCHAR
STARTCHAR c83
ENCODING -1 83
SWIDTH 193 0
DWIDTH 6 0
BBX 4 8 1 0
BITMAP
70
80
80
40
20
10
10
E0
ENDCHAR
STARTCHAR c84
ENCODING -1 84
SWIDTH 161 0
DWIDTH 5 0
BBX 5 8 0 0
BITMAP
F8
20
20
20
20
20
20
20
ENDCHAR
STARTCHAR c85
ENCODING -1 85
SWIDTH 258 0
DWIDTH 8 0
BBX 6 8 1 0
BITMAP
84
84
84
84
84
84
48
30
ENDCHAR
STARTCHAR c86
ENCODING -1 86
SWIDTH 225 0
DWIDTH 7 0
BBX 7 8 0 0
BITMAP
82
82
44
44
28
28
10
10
ENDCHAR
STARTCHAR c87
ENCODING -1 87
SWIDTH 419 0
DWIDTH 13 0
BBX 13 8 0 0
BITMAP
8208
8208
4510
4510
28A0
28A0
1040
1040
ENDCHAR
STARTCHAR c88
ENCODING -1 88
SWIDTH 225 0
DWIDTH 7 0
BBX 7 8 0 0
BITMAP
C6
44
28
10
10
28
44
C6
ENDCHAR
STARTCHAR c89
ENCODING -1 89
SWIDTH 225 0
DWIDTH 7 0
BBX 7 8 0 0
BITMAP
C6
44
28
28
10
10
10
10
ENDCHAR
STARTCHAR c90
ENCODING -1 90
SWIDTH 161 0
DWIDTH 5 0
BBX 5 8 0 0
BITMAP
F8
10
10
20
20
40
40
F8
ENDCHAR
STARTCHAR c91
ENCODING -1 91
SWIDTH 193 0
DWIDTH 6 0
BBX 3 9 2 -1
BITMAP
E0
80
80
80
80
80
80
80
E0
ENDCHAR
STARTCHAR c92
ENCODING -1 92
SWIDTH 193 0
DWIDTH 6 0
BBX 5 7 0 0
BITMAP
80
40
40
20
10
10
08
ENDCHAR
STARTCHAR c93
ENCODING -1 93
SWIDTH 193 0
DWIDTH 6 0
BBX 3 9 1 -1
BITMAP
E0
20
20
20
20
20
20
20
E0
ENDCHAR
STARTCHAR c94
ENCODING -1 94
SWIDTH 193 0
DWIDTH 6 0
BBX 5 6 0 0
BITMAP
20
50
A8
20
20
20
ENDCHAR
STARTCHAR c95
ENCODING -1 95
SWIDTH 225 0
DWIDTH 7 0
BBX 7 1 0 -1
BITMAP
FE
ENDCHAR
STARTCHAR c96
ENCODING -1 96
SWIDTH 193 0
DWIDTH 6 0
BBX 2 2 2 6
BITMAP
80
40
ENDCHAR
STARTCHAR c97
ENCODING -1 97
SWIDTH 193 0
DWIDTH 6 0
BBX 5 6 1 0
BITMAP
70
90
10
70
90
D8
ENDCHAR
STARTCHAR c98
ENCODING -1 98
SWIDTH 193 0
DWIDTH 6 0
BBX 4 8 1 0
BITMAP
80
80
B0
D0
90
90
90
E0
ENDCHAR
STARTCHAR c99
ENCODING -1 99
SWIDTH 161 0
DWIDTH 5 0
BBX 4 6 1 0
BITMAP
70
80
80
80
90
E0
ENDCHAR
STARTCHAR c100
ENCODING -1 100
SWIDTH 193 0
DWIDTH 6 0
BBX 4 8 1 0
BITMAP
10
10
70
90
90
90
B0
D0
ENDCHAR
STARTCHAR c101
ENCODING -1 101
SWIDTH 193 0
DWIDTH 6 0
BBX 4 6 1 0
BITMAP
70
90
F0
80
90
E0
ENDCHAR
STARTCHAR c102
ENCODING -1 102
SWIDTH 96 0
DWIDTH 3 0
BBX 3 8 0 0
BITMAP
60
40
E0
40
40
40
40
40
ENDCHAR
STARTCHAR c103
ENCODING -1 103
SWIDTH 193 0
DWIDTH 6 0
BBX 5 9 1 -3
BITMAP
78
90
90
E0
40
70
88
88
70
ENDCHAR
STARTCHAR c104
ENCODING -1 104
SWIDTH 193 0
DWIDTH 6 0
BBX 4 8 1 0
BITMAP
80
80
B0
D0
90
90
90
90
ENDCHAR
STARTCHAR c105
ENCODING -1 105
SWIDTH 96 0
DWIDTH 3 0
BBX 1 8 1 0
BITMAP
80
00
80
80
80
80
80
80
ENDCHAR
STARTCHAR c106
ENCODING -1 106
SWIDTH 96 0
DWIDTH 3 0
BBX 2 10 0 -2
BITMAP
40
00
40
40
40
40
40
40
40
80
ENDCHAR
STARTCHAR c107
ENCODING -1 107
SWIDTH 161 0
DWIDTH 5 0
BBX 4 8 1 0
BITMAP
80
80
90
A0
C0
C0
A0
90
ENDCHAR
STARTCHAR c108
ENCODING -1 108
SWIDTH 96 0
DWIDTH 3 0
BBX 1 8 1 0
BITMAP
80
80
80
80
80
80
80
80
ENDCHAR
STARTCHAR c109
ENCODING -1 109
SWIDTH 290 0
DWIDTH 9 0
BBX 7 6 1 0
BITMAP
B6
DA
92
92
92
92
ENDCHAR
STARTCHAR c110
ENCODING -1 110
SWIDTH 193 0
DWIDTH 6 0
BBX 4 6 1 0
BITMAP
B0
D0
90
90
90
90
ENDCHAR
STARTCHAR c111
ENCODING -1 111
SWIDTH 193 0
DWIDTH 6 0
BBX 4 6 1 0
BITMAP
70
90
90
90
90
E0
ENDCHAR
STARTCHAR c112
ENCODING -1 112
SWIDTH 193 0
DWIDTH 6 0
BBX 4 8 1 -2
BITMAP
B0
D0
90
90
90
E0
80
80
ENDCHAR
STARTCHAR c113
ENCODING -1 113
SWIDTH 193 0
DWIDTH 6 0
BBX 4 8 1 -2
BITMAP
70
90
90
90
B0
D0
10
10
ENDCHAR
STARTCHAR c114
ENCODING -1 114
SWIDTH 129 0
DWIDTH 4 0
BBX 3 6 1 0
BITMAP
A0
E0
80
80
80
80
ENDCHAR
STARTCHAR c115
ENCODING -1 115
SWIDTH 193 0
DWIDTH 6 0
BBX 4 6 1 0
BITMAP
70
80
C0
30
10
E0
ENDCHAR
STARTCHAR c116
ENCODING -1 116
SWIDTH 129 0
DWIDTH 4 0
BBX 4 8 0 0
BITMAP
40
40
F0
40
40
40
50
60
ENDCHAR
STARTCHAR c117
ENCODING -1 117
SWIDTH 193 0
DWIDTH 6 0
BBX 4 6 1 0
BITMAP
90
90
90
90
B0
D0
ENDCHAR
STARTCHAR c118
ENCODING -1 118
SWIDTH 161 0
DWIDTH 5 0
BBX 5 6 0 0
BITMAP
88
88
50
50
20
20
ENDCHAR
STARTCHAR c119
ENCODING -1 119
SWIDTH 290 0
DWIDTH 9 0
BBX 9 6 0 0
BITMAP
8880
8880
5500
5500
2200
2200
ENDCHAR
STARTCHAR c120
ENCODING -1 120
SWIDTH 161 0
DWIDTH 5 0
BBX 5 6 0 0
BITMAP
48
50
20
20
50
90
ENDCHAR
STARTCHAR c121
ENCODING -1 121
SWIDTH 161 0
DWIDTH 5 0
BBX 5 8 0 -2
BITMAP
88
88
50
50
20
20
40
40
ENDCHAR
STARTCHAR c122
ENCODING -1 122
SWIDTH 193 0
DWIDTH 6 0
BBX 4 6 1 0
BITMAP
F0
10
20
40
80
F0
ENDCHAR
STARTCHAR c123
ENCODING -1 123
SWIDTH 193 0
DWIDTH 6 0
BBX 3 9 1 -1
BITMAP
20
40
40
40
80
40
40
40
20
ENDCHAR
STARTCHAR c124
ENCODING -1 124
SWIDTH 161 0
DWIDTH 5 0
BBX 1 10 2 -2
BITMAP
80
80
80
80
80
80
80
80
80
80
ENDCHAR
STARTCHAR c125
ENCODING -1 125
SWIDTH 193 0
DWIDTH 6 0
BBX 3 9 2 -1
BITMAP
80
40
40
40
20
40
40
40
80
ENDCHAR
STARTCHAR c126
ENCODING -1 126
SWIDTH 193 0
DWIDTH 6 0
BBX 6 3 0 2
BITMAP
64
B4
98
ENDCHAR
STARTCHAR c128
ENCODING -1 128
SWIDTH 225 0
DWIDTH 7 0
BBX 7 8 0 0
BITMAP
54
10
28
28
7C
44
82
82
ENDCHAR
STARTCHAR c129
ENCODING -1 129
SWIDTH 290 0
DWIDTH 9 0
BBX 7 8 1 0
BITMAP
BA
44
82
82
82
82
44
38
ENDCHAR
STARTCHAR c130
ENCODING -1 130
SWIDTH 258 0
DWIDTH 8 0
BBX 6 8 1 0
BITMAP
94
94
84
84
84
84
48
30
ENDCHAR
STARTCHAR c131
ENCODING -1 131
SWIDTH 193 0
DWIDTH 6 0
BBX 5 8 1 0
BITMAP
50
00
70
90
10
70
90
D8
ENDCHAR
STARTCHAR c132
ENCODING -1 132
SWIDTH 193 0
DWIDTH 6 0
BBX 4 8 1 0
BITMAP
50
00
70
90
90
90
90
E0
ENDCHAR
STARTCHAR c133
ENCODING -1 133
SWIDTH 193 0
DWIDTH 6 0
BBX 4 8 1 0
BITMAP
90
00
90
90
90
90
B0
D0
ENDCHAR
STARTCHAR c134
ENCODING -1 134
SWIDTH 193 0
DWIDTH 6 0
BBX 5 8 1 0
BITMAP
60
90
00
70
90
70
90
D8
ENDCHAR
STARTCHAR c135
ENCODING -1 135
SWIDTH 193 0
DWIDTH 6 0
BBX 4 8 1 0
BITMAP
60
90
00
70
90
F0
80
E0
ENDCHAR
STARTCHAR c136
ENCODING -1 136
SWIDTH 96 0
DWIDTH 3 0
BBX 3 8 0 0
BITMAP
40
A0
40
40
40
40
40
40
ENDCHAR
STARTCHAR c137
ENCODING -1 137
SWIDTH 193 0
DWIDTH 6 0
BBX 4 8 1 0
BITMAP
60
90
00
70
90
90
90
E0
ENDCHAR
STARTCHAR c138
ENCODING -1 138
SWIDTH 193 0
DWIDTH 6 0
BBX 4 8 1 0
BITMAP
60
90
00
90
90
90
B0
D0
ENDCHAR
STARTCHAR c139
ENCODING -1 139
SWIDTH 193 0
DWIDTH 6 0
BBX 5 8 1 0
BITMAP
40
20
70
90
10
70
90
D8
ENDCHAR
STARTCHAR c140
ENCODING -1 140
SWIDTH 193 0
DWIDTH 6 0
BBX 4 8 1 0
BITMAP
40
20
60
90
F0
80
90
E0
ENDCHAR
STARTCHAR c141
ENCODING -1 141
SWIDTH 96 0
DWIDTH 3 0
BBX 2 8 1 0
BITMAP
80
40
80
80
80
80
80
80
ENDCHAR
STARTCHAR c142
ENCODING -1 142
SWIDTH 193 0
DWIDTH 6 0
BBX 4 8 1 0
BITMAP
40
20
70
90
90
90
90
E0
ENDCHAR
STARTCHAR c143
ENCODING -1 143
SWIDTH 193 0
DWIDTH 6 0
BBX 4 8 1 0
BITMAP
40
20
90
90
90
90
B0
D0
ENDCHAR
STARTCHAR c144
ENCODING -1 144
SWIDTH 193 0
DWIDTH 6 0
BBX 4 8 1 0
BITMAP
10
20
70
90
F0
80
90
E0
ENDCHAR
STARTCHAR c145
ENCODING -1 145
SWIDTH 193 0
DWIDTH 6 0
BBX 4 8 1 0
BITMAP
50
00
70
90
F0
80
90
E0
ENDCHAR
STARTCHAR c146
ENCODING -1 146
SWIDTH 96 0
DWIDTH 3 0
BBX 3 8 0 0
BITMAP
A0
00
40
40
40
40
40
40
ENDCHAR
STARTCHAR c147
ENCODING -1 147
SWIDTH 161 0
DWIDTH 5 0
BBX 4 10 1 -4
BITMAP
70
80
80
80
90
E0
00
60
20
40
ENDCHAR
STARTCHAR c148
ENCODING -1 148
SWIDTH 193 0
DWIDTH 6 0
BBX 5 8 1 0
BITMAP
10
20
70
90
10
70
90
D8
ENDCHAR
STARTCHAR c149
ENCODING -1 149
SWIDTH 193 0
DWIDTH 6 0
BBX 5 8 1 0
BITMAP
68
B0
00
B0
D0
90
90
90
ENDCHAR
STARTCHAR c155
ENCODING -1 155
SWIDTH 387 0
DWIDTH 12 0
BBX 12 1 0 2
BITMAP
FFF0
ENDCHAR
STARTCHAR c159
ENCODING -1 159
SWIDTH 193 0
DWIDTH 6 0
BBX 0 0 0 0
BITMAP
ENDCHAR
ENDFONT
